<?xml version="1.0" encoding="UTF-8"?>
<svg width="34px" height="33px" viewBox="0 0 34 33" version="1.1" xmlns="http://www.w3.org/2000/svg" xmlns:xlink="http://www.w3.org/1999/xlink">
    <!-- Generator: Sketch 52.5 (67469) - http://www.bohemiancoding.com/sketch -->
    <title>Rocket League Active</title>
    <desc>Created with Sketch.</desc>
    <defs>
        <path d="M335.943069,24.0386054 C336.049149,25.1911704 336.296669,28.6838187 333.503225,33.4687344 C330.957301,37.8345328 328.199217,39.1268122 326.820175,39.7205574 C326.749455,39.7555406 326.64338,39.7903888 326.572656,39.82537 L326.219054,40 L325.865454,39.82537 C325.794734,39.7903888 325.724008,39.7555406 325.617934,39.7205574 C324.274252,39.1268122 321.480808,37.8345328 318.864164,33.4687344 C317.272962,30.7444753 316.459686,28.0551438 316.388961,25.4705852 C316.14144,25.0165404 316,24.5275779 316,24.0036759 C316,22.3272089 317.379042,21 319.040965,21 C319.783526,21 320.490726,21.2794168 321.021127,21.7334616 C322.54161,21.3842015 324.274252,21.2095596 326.183695,21.2095596 C331.240182,21.2095596 334.068985,22.3970661 335.554107,23.4099286 L335.907709,23.6544158 L335.943071,24.0386054 Z M325.40577,27.8106566 C325.61793,27.9503571 325.936171,28.3345467 325.936171,28.3345467 L326.042257,28.3695278 L326.254418,28.3345467 C325.865457,27.8456377 325.40577,27.8106566 325.40577,27.8106566 Z M324.698575,29.976098 L324.486415,29.452196 L324.41569,29.452196 L324.06209,29.8713113 C324.30961,30.0808709 324.698571,29.9761238 324.698571,29.9761238 L324.698575,29.976098 Z M327.9517,26.902565 L327.774899,26.9723964 L327.98706,27.356584 L328.694261,27.6010712 C328.411381,27.007324 327.9517,26.9025392 327.9517,26.9025392 L327.9517,26.902565 Z M325.936177,27.6360266 C326.148338,27.8805138 326.360498,28.2297739 326.360498,28.2297739 C326.714098,27.8805138 327.456659,27.7407994 328.411381,27.775727 C327.067698,27.4963122 325.936177,27.6360266 325.936177,27.6360266 Z M324.627855,27.1121246 C324.627855,27.1121246 325.016816,27.1121246 325.547216,27.2169371 C325.193616,26.9724499 324.627855,26.8327475 324.627855,26.8327475 L324.627855,27.1121246 Z M327.88098,29.0330788 L327.279858,29.5569808 L327.73954,29.6966832 L328.19922,29.2077088 L327.9517,29.1028963 L327.88098,29.0330788 Z M323.885294,26.2738901 C323.885294,26.2738901 324.132815,26.4136044 324.168174,26.4136044 C324.203537,26.4136044 324.698575,26.5882345 324.910735,26.6580778 C325.087536,26.7279092 325.193616,26.6580778 325.228976,26.6580778 C325.264338,26.6580778 325.865457,26.3088197 325.865457,26.3088197 C325.335056,26.0992601 324.840015,25.9595596 324.840015,25.9595596 C324.804653,25.9595596 323.885294,26.2738901 323.885294,26.2738901 Z M327.492019,26.5882345 C327.456656,26.5184031 327.385945,26.5184031 326.961618,26.4485201 C326.572658,26.4136699 326.219057,26.3786887 326.148338,26.3786887 C326.077613,26.3786887 326.042264,26.4136699 326.042264,26.4136699 C326.042264,26.4136699 325.830104,26.5533723 325.653303,26.6581452 C325.476502,26.7629557 325.441143,26.7978595 325.405783,26.8677028 C325.370421,26.9026839 325.476508,27.0423467 325.476508,27.0423467 L325.759387,27.3916048 C325.79475,27.3916048 325.900827,27.4614362 325.900827,27.4614362 C325.900827,27.4614362 326.466589,27.4264551 326.820189,27.3916048 L327.739551,27.3916048 C327.774913,27.3916048 327.739551,27.2519044 327.668826,27.0772604 C327.598102,26.93756 327.492025,26.5882999 327.492025,26.5882999 L327.492019,26.5882345 Z M324.132815,26.9724221 C324.132815,26.9724221 324.168177,26.9724221 324.238888,27.0074033 C324.309613,27.0074033 324.344962,26.9375739 324.344962,26.8676889 C324.344962,26.7628784 324.238888,26.7279885 324.238888,26.7279885 L324.168164,26.7279885 L324.06209,26.7629696 L324.026728,27.0074568 L324.06209,27.0074568 L324.132815,26.9724757 C324.097452,26.9026443 324.097452,26.8676632 324.097452,26.7978456 C324.097452,26.7628645 324.168177,26.6930331 324.203526,26.6930331 C324.203526,26.6930331 324.274251,26.6930331 324.238888,26.8327475 C324.238888,26.9724499 324.132815,26.9724499 324.132815,26.9724499 L324.132815,26.9724221 Z M330.108663,29.7316108 L329.825782,30.1157985 L329.825782,30.1507796 L330.214743,30.1507796 C330.285468,29.9062944 330.108656,29.7316643 330.108656,29.7316643 L330.108663,29.7316108 Z M323.036652,27.9154295 L322.965928,27.9154295 L322.789127,27.8804484 C322.612326,27.8454652 322.683054,27.5311744 322.683054,27.5311744 L322.470893,27.6010058 C322.400169,27.4613053 322.081932,27.0771038 322.081932,27.0771038 L322.011208,27.3565186 C322.04657,27.3914997 322.223368,27.670863 322.258729,27.7407063 L322.152655,27.8455188 C322.152655,27.8455188 322.117293,27.9153502 322.117293,27.9503313 C322.117293,27.9853124 322.081931,28.0201627 322.081931,28.0201627 L321.94049,28.0899921 L321.905128,28.0899921 L321.410086,27.7057906 L321.410086,27.9852073 L321.445449,27.9852073 C321.480811,28.0550387 321.551522,28.194765 321.72833,28.2646221 C321.869769,28.3344535 322.04657,28.3344535 322.117289,28.2996033 C322.188014,28.3345864 322.223363,28.3345864 322.25873,28.3694347 C322.40017,28.4392661 322.43553,28.4044158 322.43553,28.4044158 L322.647691,28.3345864 L322.683054,28.3345864 L322.718416,28.2996033 L322.78914,28.1598889 C322.78914,28.1598889 323.14274,28.194872 323.284182,28.194872 C323.425621,27.9853124 323.885301,27.6709819 324.203542,27.6360524 C324.521783,27.6360524 325.052183,27.7058838 325.476504,28.1250149 C325.865465,28.5441301 325.759385,29.1029617 325.759385,29.1029617 L326.537305,29.3474489 L326.183705,29.1029617 C325.900824,28.4044297 325.228984,27.7757548 325.228984,27.7757548 C325.228984,27.7757548 325.052183,27.7407737 324.946103,27.7407737 C324.84003,27.7057906 324.769304,27.6359612 324.769304,27.6359612 C324.769304,27.6359612 324.733941,27.60098 324.663217,27.4962468 L324.592492,27.3565444 C324.592492,27.3565444 324.521768,27.286715 324.415692,27.2168439 C324.309605,27.1470125 323.920652,27.1120314 323.708492,27.0771296 C323.496331,27.0421485 323.496331,27.0771296 323.496331,27.0771296 C324.097451,27.2168439 324.274252,27.2517715 324.309611,27.2866872 C324.309611,27.2866872 324.344974,27.3565186 324.380336,27.3914997 C323.885296,27.2866872 323.425615,27.3565186 323.319534,27.3914997 C323.390259,27.4963122 323.390259,27.6359869 323.319534,27.7407598 C323.24881,27.8105912 323.036654,27.9153898 323.036654,27.9153898 L323.036652,27.9154295 Z M329.755063,30.4301309 L329.86115,30.8841758 C329.86115,30.8841758 329.967223,30.7793632 330.07331,30.6396886 C330.179397,30.4999881 330.21475,30.3602857 330.21475,30.3602857 L329.790429,30.3952668 L329.755063,30.4301309 Z M321.23329,27.2518389 L321.197927,27.6360266 L321.410088,27.6360266 L321.44545,27.3915394 L321.44545,27.5312398 L321.480812,27.5312398 L321.480812,27.3216822 L321.44545,27.3216822 L321.44545,27.1819818 L321.76369,27.3566118 L321.799053,27.4264412 L321.869777,27.4962726 L321.940502,27.4962726 L321.975864,27.4612915 L321.975864,27.4263103 C321.763704,27.4263103 321.763704,27.3214978 321.763704,27.3214978 C321.763704,27.3214978 321.799066,27.0770245 321.834428,27.0071673 C321.869791,26.9373359 322.011229,26.9721842 322.011229,26.9721842 L321.975867,26.9372031 L321.905142,26.9372031 C321.834418,26.902222 321.622261,26.7625731 321.551541,26.7276455 L321.551541,26.6926643 L321.586903,26.6576832 L321.586903,26.5179808 L321.622265,26.5179808 C321.622265,26.4829996 321.657628,26.4829996 321.657628,26.4481514 C321.728352,26.4481514 322.258748,26.3433388 322.258748,26.3433388 L321.763708,26.2385263 L321.763708,26.203676 C321.622268,26.1686949 321.516188,26.1338466 321.445467,26.0988635 C321.268668,26.3084231 321.197948,26.5878379 321.197948,26.5878379 C321.197948,26.5878379 321.162585,27.0767985 321.162585,27.1466556 C321.127223,27.216487 321.23331,27.2514682 321.23331,27.2514682 L321.23329,27.2518389 Z M329.542902,30.0110137 L329.613627,30.1158262 L329.648989,30.0808451 L329.931869,29.731585 L329.931869,29.6966039 C329.790429,29.6966039 329.542909,30.0109344 329.542909,30.0109344 L329.542902,30.0110137 Z M328.694261,29.3823388 L328.482101,29.3125074 L327.98706,29.8713251 L328.34066,29.9761377 C328.411385,29.6967229 328.694261,29.3823785 328.694261,29.3823785 L328.694261,29.3823388 Z M329.436822,30.1856556 C329.260022,30.5349157 329.295381,30.7794029 329.295381,30.7794029 L329.472182,30.3952152 L329.472182,30.3253838 C329.507544,30.3253838 329.472182,30.2555525 329.43682,30.1856834 L329.436822,30.1856556 Z M329.260022,27.9154295 C329.260022,27.9154295 329.189297,28.0551438 329.153935,28.0900714 C329.118572,28.1250525 328.871054,28.1599028 328.729614,28.1948839 C328.588175,28.2647153 328.340653,28.369514 328.269934,28.4393711 C328.234572,28.4743523 328.234572,28.5790716 328.234572,28.6140012 C328.234572,28.6140012 328.305296,28.6489823 328.340645,28.6489823 L328.022403,28.9283991 L328.093128,28.9982285 L328.871049,29.2427157 C329.047849,29.1030152 329.295369,29.0680857 329.295369,29.0680857 C329.153929,28.9982563 328.552808,28.7537413 328.376009,28.683898 C328.376009,28.683898 328.269935,28.6489169 328.269935,28.6140666 L328.269935,28.5092541 C328.269935,28.5092541 328.729616,28.1599821 329.436817,28.1599821 L329.542904,27.9504245 L329.260022,27.9154295 Z M329.719702,30.9889605 L329.578262,30.5698453 L329.5429,30.5698453 L329.330742,30.9540329 L329.366104,30.9890141 C329.542905,31.0588455 329.719705,30.9890141 329.719705,30.9890141 L329.719702,30.9889605 Z M324.380335,27.0073517 L324.486408,27.0423328 C324.486408,27.0423328 324.557133,27.0423328 324.557133,26.9725014 L324.557133,26.832801 L324.451059,26.7629696 L324.309618,26.7279885 C324.34498,26.7629696 324.34498,26.7978199 324.34498,26.7978199 L324.380343,26.7978199 C324.380343,26.7628387 324.415705,26.7628387 324.415705,26.7978199 C324.415705,26.7978199 324.486429,26.832801 324.451067,26.9375203 C324.486429,26.9725014 324.415705,27.0073517 324.380356,27.0073517 L324.380335,27.0073517 Z M324.062094,28.9283059 C323.814574,29.3823388 323.99137,29.6966832 323.99137,29.6966832 L324.30961,29.2426364 L324.30961,29.172807 L324.062094,28.9283059 Z M321.76369,26.2389625 L322.188011,26.343773 C322.223373,26.343773 322.470892,26.3087919 322.470892,26.3087919 L321.799051,26.1341619 L321.76369,26.2389625 Z M322.011212,26.13415 C322.576972,26.2039794 322.683052,26.30878 322.683052,26.30878 C322.683052,26.30878 322.895213,26.2737969 323.001293,26.2737969 C322.824492,26.1340965 322.046571,25.8896093 322.046571,25.8896093 C322.046571,25.8896093 322.011209,25.9944218 322.011209,26.1340965 L322.011212,26.13415 Z M322.859853,27.2168697 C322.753779,27.2867011 322.647693,27.4962726 322.683052,27.6709165 C322.718415,27.8455446 322.753777,27.8455446 322.859853,27.8455446 C322.683052,27.7757151 322.718412,27.4962726 322.859853,27.3216426 C322.965926,27.1819421 323.072013,27.2866614 323.072013,27.2866614 C323.072013,27.2866614 322.96594,27.1469471 322.859853,27.21683 L322.859853,27.2168697 Z M320.349289,32.3859731 C319.889609,32.3859731 319.359208,32.5606031 319.677448,33.0495775 C322.294091,37.4852331 325.052175,38.5330252 326.219057,39.0918429 C326.749458,38.8473557 327.598099,38.4631681 328.623541,37.764636 C329.224662,37.3804464 329.153942,36.7867011 329.012502,36.4025114 C328.269941,34.586344 324.203534,32.5256755 320.349289,32.3859731 Z M335.09443,24.1084229 C334.033629,23.3749613 331.416984,22.0477525 326.219057,22.0477525 C324.415694,22.0477525 322.895213,22.2223964 321.692971,22.4668697 C321.975851,22.9209165 322.117292,23.4448185 322.117292,24.0036362 C322.117292,24.7720135 321.834411,25.4705455 321.374731,25.9944475 C321.480804,26.0292978 321.622251,26.0642789 321.799051,26.0992601 L321.869776,25.92463 C321.869776,25.92463 321.940501,25.92463 321.97585,25.9596112 C321.97585,25.7849831 322.081923,25.7849831 322.081923,25.7849831 C322.081923,25.7849831 322.081923,25.75 322.117285,25.75 C322.294086,25.7849831 322.789127,26.0294029 323.001287,26.1341896 C323.213448,26.2390022 323.213448,26.2738901 323.213448,26.2738901 C323.213448,26.2738901 323.708489,26.2738901 323.849929,26.238909 C323.991368,26.238909 324.238889,26.1340965 324.59249,26.0293514 C324.94609,25.9245388 325.01681,25.889635 325.087531,25.889635 C325.158255,25.889635 325.794731,25.9246181 326.360493,25.9944475 C326.926253,26.0642789 327.456654,26.2738505 327.562734,26.3437076 L327.739535,26.3786887 L327.774897,26.2738762 L327.492016,26.1690657 C327.492016,26.1690657 327.527378,25.9944357 327.527378,25.9595061 C327.527378,25.924525 327.562741,25.8896747 327.598103,25.8896747 C327.633465,25.8896747 327.951703,25.9595061 328.057783,25.9944872 C328.16387,26.0293375 328.517465,26.2738901 328.552824,26.2738901 C328.588186,26.2738901 328.588186,26.3088712 328.588186,26.3088712 C328.588186,26.3787026 328.517462,26.5184308 328.517462,26.5184308 L328.411389,26.4834477 L328.517462,26.5184308 C328.517462,26.5184308 328.623535,26.553412 328.658902,26.5882603 C328.694264,26.6232414 328.800343,26.6930728 328.906423,26.7978199 C329.012496,26.8676493 328.977148,26.9724499 328.977148,26.9724499 L329.224667,27.2169371 L329.224667,27.3217476 L329.825787,27.9154949 L329.825787,27.950476 L329.542908,28.1251061 C329.542908,28.1251061 329.931867,28.0901249 330.214748,28.2299186 C330.497629,28.3696191 330.532989,28.4394762 330.532989,28.5093334 C330.462264,28.5443165 330.356188,28.5791648 330.356188,28.5791648 C330.144028,28.6489962 329.613627,28.998282 329.613627,28.998282 L329.613627,29.0332632 L329.896508,29.1030945 C330.214748,28.8236778 330.780509,28.7189049 331.204829,28.7887502 C332.654592,29.068165 333.644673,30.0111842 333.856833,30.8144891 C333.856833,30.8494722 333.892195,30.9193016 333.892195,30.9541916 C335.341957,27.6012556 335.200517,25.1913409 335.094437,24.1086212 L335.09443,24.1084229 Z M330.002583,29.2076691 C330.037945,29.2426503 330.073307,29.2426503 330.108669,29.2774986 C330.32083,29.417201 330.42691,29.4870582 330.46227,29.8014025 C330.497632,30.0458759 330.426907,30.3951478 330.250109,30.7094803 C331.240185,31.3730828 332.619227,30.8491808 333.149628,31.3730828 C333.043554,30.0458759 331.063384,28.7186809 330.002583,29.2076414 L330.002583,29.2076691 Z M321.869771,27.4962726 L321.799046,27.5312537 L321.799046,27.8106705 L321.869771,27.7756874 L321.869771,27.4962726 Z M332.088826,31.8271554 C331.346265,31.8271554 330.603704,31.5826681 330.073303,30.9539933 L330.073303,30.9889744 C329.755063,31.4080916 329.401461,31.4080916 329.260022,31.4080916 C329.118582,31.4080916 328.6589,31.198534 328.482101,30.9889744 C328.3053,30.7794168 328.3053,30.3952271 328.3053,30.3952271 L327.598099,30.1507419 L326.714098,29.6617675 L326.572658,29.6267864 C326.289777,29.7665007 325.936177,29.6617675 325.617937,29.4172268 C325.582575,29.5569411 325.405777,29.9062012 325.193616,30.0808312 C324.981456,30.2554612 324.557135,30.4999484 324.238895,30.4999484 C323.920654,30.4999484 323.213453,30.1506884 323.001293,29.661714 C322.789132,29.1727396 323.001293,28.6488514 323.001293,28.6488514 L322.647693,28.57902 L322.506251,28.40439 C322.506251,28.40439 322.081931,28.7536501 321.622251,28.6139476 C321.16257,28.4742472 320.773609,28.0900595 320.667529,27.7407856 C320.596805,27.3915255 320.702892,27.0771831 320.738254,27.0422674 C320.667529,26.7977802 320.667529,26.6580659 320.667529,26.6580659 L320.632167,26.6580659 L320.632167,26.5532534 C320.172486,26.8675838 319.642085,27.0072982 319.076324,27.0072982 C318.439843,27.0072982 317.838722,26.7977406 317.343682,26.4833962 C317.414407,27.2517854 317.626562,28.1598632 317.909443,29.1727277 C318.298404,30.5697917 319.571366,31.0238366 321.480808,31.338169 C325.688653,32.0017715 329.719699,35.1800774 329.43682,37.1359473 C330.497621,36.2627971 331.629142,34.9705198 332.760664,33.0495636 C333.220344,32.316104 332.796026,31.8271415 332.088823,31.8271415 L332.088826,31.8271554 Z M320.84433,27.0073121 L320.808968,27.3914997 L321.056489,27.3914997 L321.056489,27.3565186 L321.021127,27.3565186 L321.021127,27.3215375 L320.985765,27.3215375 L321.021127,27.2517061 L321.056489,27.0770641 L321.021127,27.042081 L321.021127,26.9722516 L321.056489,26.9372705 L321.091851,26.5181533 L320.915051,26.4133407 C320.985775,26.1339259 321.162572,25.8894387 321.162572,25.8894387 L321.056498,25.8894387 C320.879698,26.0989964 320.808977,26.3784112 320.808977,26.3784112 C320.808977,26.3784112 320.773615,26.832458 320.773615,26.9023013 C320.773615,27.0071138 320.844339,27.0071138 320.844339,27.0071138 L320.84433,27.0073121 Z M324.733935,29.3473835 L324.910735,29.9062012 C325.264336,29.661714 325.335056,29.2775263 325.335056,29.2775263 L324.769296,29.3125074 L324.733935,29.3473835 Z M325.052175,28.4742214 L324.769296,28.9631819 L324.804658,28.9981631 L325.370418,29.0331442 C325.370418,28.6489565 325.052178,28.4743265 325.052178,28.4743265 L325.052175,28.4742214 Z M321.51617,27.3914997 L321.480808,27.6010593 L321.51617,27.6010593 L321.51617,27.3914997 Z M324.203534,28.7187086 L324.486415,28.9282662 L324.557139,28.8932851 L324.87538,28.4043107 C324.486419,28.3693296 324.203538,28.7186551 324.203538,28.7186551 L324.203534,28.7187086 Z M321.586891,27.4264293 L321.551529,27.3914462 L321.551529,27.6359334 L321.586891,27.6359334 L321.586891,27.4264293 Z M321.692965,27.4962587 L321.657602,27.740734 L321.692965,27.740734 L321.692965,27.4962587 Z M321.763689,27.5312398 L321.728327,27.775727 L321.763689,27.775727 L321.763689,27.5312398 Z M321.622248,27.4614104 L321.586886,27.7058838 L321.622248,27.7058838 L321.622248,27.4614104 Z M319.076331,26.1691406 C320.287117,26.1691406 321.268654,25.1996415 321.268654,24.0037036 C321.268654,22.8077658 320.287117,21.8382666 319.076331,21.8382666 C317.865544,21.8382666 316.884008,22.8077658 316.884008,24.0037036 C316.884008,25.1996415 317.865544,26.1691406 319.076331,26.1691406 Z" id="path-1"></path>
        <filter x="-55.0%" y="-52.6%" width="209.3%" height="214.3%" filterUnits="objectBoundingBox" id="filter-2">
            <feOffset dx="0" dy="1" in="SourceAlpha" result="shadowOffsetOuter1"></feOffset>
            <feGaussianBlur stdDeviation="3.5" in="shadowOffsetOuter1" result="shadowBlurOuter1"></feGaussianBlur>
            <feColorMatrix values="0 0 0 0 0.0941176471   0 0 0 0 0.631372549   0 0 0 0 0.97254902  0 0 0 1 0" type="matrix" in="shadowBlurOuter1"></feColorMatrix>
        </filter>
    </defs>
    <g id="Page-1" stroke="none" stroke-width="1" fill="none" fill-rule="evenodd">
        <g id="Artboard" transform="translate(-309.000000, -15.000000)">
            <g id="Rocket-League-Active">
                <use fill="black" fill-opacity="1" filter="url(#filter-2)" xlink:href="#path-1"></use>
                <use fill="#FFFFFF" fill-rule="evenodd" xlink:href="#path-1"></use>
            </g>
        </g>
    </g>
</svg>