<?xml version="1.0" encoding="UTF-8"?>
<svg width="32px" height="32px" viewBox="0 0 32 32" version="1.1" xmlns="http://www.w3.org/2000/svg" xmlns:xlink="http://www.w3.org/1999/xlink">
    <!-- Generator: Sketch 51.3 (57544) - http://www.bohemiancoding.com/sketch -->
    <title>pubg-lit</title>
    <desc>Created with Sketch.</desc>
    <defs>
        <filter x="-61.1%" y="-55.6%" width="222.2%" height="222.2%" filterUnits="objectBoundingBox" id="filter-1">
            <feOffset dx="0" dy="1" in="SourceAlpha" result="shadowOffsetOuter1"></feOffset>
            <feGaussianBlur stdDeviation="3.5" in="shadowOffsetOuter1" result="shadowBlurOuter1"></feGaussianBlur>
            <feColorMatrix values="0 0 0 0 0.0941176471   0 0 0 0 0.631372549   0 0 0 0 0.97254902  0 0 0 1 0" type="matrix" in="shadowBlurOuter1" result="shadowMatrixOuter1"></feColorMatrix>
            <feMerge>
                <feMergeNode in="shadowMatrixOuter1"></feMergeNode>
                <feMergeNode in="SourceGraphic"></feMergeNode>
            </feMerge>
        </filter>
    </defs>
    <g id="Page-1" stroke="none" stroke-width="1" fill="none" fill-rule="evenodd">
        <g id="Game-Icons" transform="translate(-46.000000, -13.000000)" fill="#FFFFFF" fill-rule="nonzero">
            <g id="pubg-lit" filter="url(#filter-1)" transform="translate(53.000000, 19.000000)">
                <path d="M1,3 L1,1 C1,0.44771525 1.44771525,1.01453063e-16 2,0 L16,0 C16.5522847,-1.01453063e-16 17,0.44771525 17,1 L17,3 L18,3 L18,6 L17,6 L17,12 L18,12 L18,15 L17,15 L17,17 C17,17.5522847 16.5522847,18 16,18 L2,18 C1.44771525,18 1,17.5522847 1,17 L1,15 L0,15 L0,12 L1,12 L1,6 L0,6 L0,3 L1,3 Z M5.95703123,8.5 L5.95703123,10.5 L6.5,10.5 L6.5,16.4599632 L9,16.4599632 L9,10.5 L12.5,10.5 L12.5,2.4652388 L6.5,2.4652388 L6.5,8.5 L5.95703123,8.5 Z M9,4.52933846 L10,4.52933846 L10,8.5 L9,8.5 L9,4.52933846 Z" id="pubg"></path>
            </g>
        </g>
    </g>
</svg>