<?xml version="1.0" encoding="UTF-8"?>
<svg width="34px" height="34px" viewBox="0 0 34 34" version="1.1" xmlns="http://www.w3.org/2000/svg" xmlns:xlink="http://www.w3.org/1999/xlink">
    <!-- Generator: Sketch 51.3 (57544) - http://www.bohemiancoding.com/sketch -->
    <title>fn-lit</title>
    <desc>Created with Sketch.</desc>
    <defs>
        <filter x="-55.0%" y="-47.6%" width="210.0%" height="204.8%" filterUnits="objectBoundingBox" id="filter-1">
            <feOffset dx="0" dy="1" in="SourceAlpha" result="shadowOffsetOuter1"></feOffset>
            <feGaussianBlur stdDeviation="3.5" in="shadowOffsetOuter1" result="shadowBlurOuter1"></feGaussianBlur>
            <feColorMatrix values="0 0 0 0 0.0941176471   0 0 0 0 0.631372549   0 0 0 0 0.97254902  0 0 0 1 0" type="matrix" in="shadowBlurOuter1" result="shadowMatrixOuter1"></feColorMatrix>
            <feMerge>
                <feMergeNode in="shadowMatrixOuter1"></feMergeNode>
                <feMergeNode in="SourceGraphic"></feMergeNode>
            </feMerge>
        </filter>
    </defs>
    <g id="Page-1" stroke="none" stroke-width="1" fill="none" fill-rule="evenodd">
        <g id="Game-Icons" transform="translate(-83.000000, -14.000000)" fill="#FFFFFF">
            <g id="fn-lit" filter="url(#filter-1)" transform="translate(90.000000, 19.000000)">
                <path d="M13.2778,5.6986 C13.4008,4.3756 13.5188,3.1146 13.6388,1.8276 L6.3648,1.8276 L6.3648,19.8186 C7.6828,19.5786 8.9598,19.3466 10.2728,19.1086 C10.2728,18.8996 10.2738,18.7316 10.2728,18.5646 C10.2598,16.8206 10.2438,15.0766 10.2368,13.3326 C10.2358,13.0456 10.2758,12.7576 10.3008,12.4126 L12.8168,12.4126 L12.8168,8.6756 C11.9968,8.6126 11.1628,8.7536 10.3438,8.5986 L10.3438,5.6986 L13.2778,5.6986 Z M5.4748,0.9176 L14.5818,0.9176 C14.5458,1.5046 14.5088,2.0916 14.4688,2.7436 L19.9528,2.7436 C19.8758,3.3846 19.7968,3.9586 19.7378,4.5336 C19.6188,5.7006 19.3858,6.8546 19.4568,8.0436 C19.6398,11.1576 19.7808,14.2736 19.9368,17.3886 C19.9448,17.5366 19.9378,17.6856 19.9378,17.8686 C16.9918,17.7196 14.1098,17.5736 11.1608,17.4246 L11.1608,19.8296 C9.2448,20.1806 7.3848,20.5216 5.4368,20.8776 L5.4368,18.1116 C3.6218,18.3516 1.8898,18.5806 0.1298,18.8136 C0.1218,18.6396 0.1078,18.5296 0.1118,18.4196 C0.2118,15.9396 0.3138,13.4606 0.4128,10.9816 C0.4608,9.7926 0.5728,8.6006 0.5278,7.4156 C0.4798,6.1436 0.2778,4.8786 0.1498,3.6096 C0.1218,3.3376 0.1188,3.0626 0.1008,2.6996 L5.4748,2.6996 L5.4748,0.9176 Z" id="Fill-9"></path>
            </g>
        </g>
    </g>
</svg>