<?xml version="1.0" encoding="UTF-8"?>
<svg width="30px" height="32px" viewBox="0 0 30 32" version="1.1" xmlns="http://www.w3.org/2000/svg" xmlns:xlink="http://www.w3.org/1999/xlink">
    <!-- Generator: Sketch 51.3 (57544) - http://www.bohemiancoding.com/sketch -->
    <title>lol-lit</title>
    <desc>Created with Sketch.</desc>
    <defs>
        <filter x="-64.7%" y="-55.6%" width="229.4%" height="222.2%" filterUnits="objectBoundingBox" id="filter-1">
            <feOffset dx="0" dy="1" in="SourceAlpha" result="shadowOffsetOuter1"></feOffset>
            <feGaussianBlur stdDeviation="3.5" in="shadowOffsetOuter1" result="shadowBlurOuter1"></feGaussianBlur>
            <feColorMatrix values="0 0 0 0 0.0941176471   0 0 0 0 0.631372549   0 0 0 0 0.97254902  0 0 0 1 0" type="matrix" in="shadowBlurOuter1" result="shadowMatrixOuter1"></feColorMatrix>
            <feMerge>
                <feMergeNode in="shadowMatrixOuter1"></feMergeNode>
                <feMergeNode in="SourceGraphic"></feMergeNode>
            </feMerge>
        </filter>
    </defs>
    <g id="Page-1" stroke="none" stroke-width="1" fill="none" fill-rule="evenodd">
        <g id="Game-Icons" transform="translate(-8.000000, -13.000000)" fill="#FFFFFF">
            <g id="lol-lit" filter="url(#filter-1)" transform="translate(15.000000, 19.000000)">
                <path d="M6.7285,14.5555 L6.7285,2.1845 L3.8415,2.1845 C3.8555,2.2085 3.8655,2.2265 3.8755,2.2435 C4.1275,2.6535 4.3795,3.0615 4.6295,3.4725 C4.6525,3.5115 4.6665,3.5615 4.6665,3.6055 C4.6685,7.2425 4.6685,10.8795 4.6665,14.5155 C4.6665,14.5585 4.6525,14.6065 4.6295,14.6415 C4.3675,15.0495 4.1015,15.4555 3.8365,15.8625 C3.8245,15.8815 3.8125,15.9015 3.7965,15.9295 L3.8655,15.9295 C6.7385,15.9295 9.6125,15.9295 12.4855,15.9305 C12.5355,15.9305 12.5645,15.9135 12.5935,15.8755 C12.7615,15.6495 12.9335,15.4265 13.1035,15.2025 C13.2655,14.9895 13.4265,14.7765 13.5935,14.5555 L6.7285,14.5555 Z M1.2505,17.3045 C1.3075,17.2165 1.3565,17.1405 1.4065,17.0645 C2.0185,16.1285 2.6305,15.1915 3.2445,14.2565 C3.2775,14.2045 3.2945,14.1545 3.2945,14.0915 C3.2935,10.7295 3.2935,7.3685 3.2945,4.0065 C3.2945,3.9465 3.2815,3.8965 3.2505,3.8465 C2.6395,2.8545 2.0285,1.8635 1.4185,0.8715 C1.4065,0.8525 1.3955,0.8335 1.3805,0.8075 L8.1035,0.8075 L8.1035,13.1765 L16.3675,13.1765 C16.2665,13.3095 16.1765,13.4295 16.0855,13.5485 C15.2655,14.6275 14.4455,15.7055 13.6245,16.7845 C13.5025,16.9455 13.3825,17.1065 13.2575,17.2645 C13.2415,17.2855 13.2075,17.3005 13.1795,17.3025 C13.1135,17.3075 13.0465,17.3045 12.9805,17.3045 L1.3555,17.3045 L1.2505,17.3045 Z" id="Fill-3"></path>
                <path d="M15.373,11.8021 L13.947,11.8021 C14.516,10.0591 14.411,8.3681 13.519,6.7601 C12.63,5.1561 11.261,4.1581 9.484,3.7091 L9.484,2.3181 C13.831,3.0691 16.628,7.5901 15.373,11.8021" id="Fill-5"></path>
                <path d="M1.9155,5.4154 L1.9155,14.0544 C0.3075,11.8844 -0.1175,8.3124 1.9155,5.4154" id="Fill-7"></path>
            </g>
        </g>
    </g>
</svg>